<svg width="53" height="49" viewBox="0 0 53 49" fill="none" xmlns="http://www.w3.org/2000/svg">
<path d="M20.8099 23.3412L20.8325 23.3158L20.8542 23.2896C21.6318 22.3519 22.5297 21.5806 23.5532 20.967C24.4646 20.4206 25.4452 20.1438 26.5326 20.1331C27.6427 20.1222 28.6445 20.3697 29.5727 20.8699C30.5859 21.416 31.4837 22.1381 32.2709 23.05L32.2817 23.0626L32.2927 23.0749C33.4048 24.3209 34.3906 25.6665 35.2506 27.1135C36.248 28.7916 37.415 30.3533 38.7497 31.7971L38.7551 31.803L38.7607 31.8089C40.2548 33.3993 41.7597 35.0108 43.2755 36.6434C44.4605 37.9197 45.0348 39.3614 45.0515 41.056C45.0664 42.5679 44.6046 43.8229 43.6552 44.9184C42.7444 45.9693 41.6923 46.4523 40.3764 46.4653C38.2031 46.4868 36.0496 46.3269 33.9145 45.986C31.5568 45.6095 29.179 45.4332 26.7824 45.4568C24.3857 45.4805 22.0119 45.7037 19.6621 46.1266C17.5341 46.5096 15.3841 46.7118 13.2109 46.7333C11.895 46.7463 10.8336 46.2841 9.90223 45.2513C8.9314 44.1748 8.44489 42.9291 8.42998 41.4172C8.41326 39.7226 8.95904 38.2699 10.1185 36.9705C11.6002 35.3102 13.0714 33.6712 14.5322 32.0534C15.8469 30.619 16.9795 29.0579 17.9274 27.3721C18.7289 25.9466 19.6886 24.6032 20.8099 23.3412ZM7.50196 21.3988C6.24087 21.4112 5.24765 21.0081 4.3973 20.1744C3.54695 19.3407 3.12434 18.3556 3.1119 17.0945C3.09946 15.8334 3.50255 14.8402 4.3363 13.9898C5.17004 13.1395 6.15511 12.7169 7.4162 12.7044C8.67729 12.692 9.67051 13.0951 10.5209 13.9288C11.3712 14.7626 11.7938 15.7477 11.8063 17.0087C11.8187 18.2698 11.4156 19.263 10.5819 20.1134C9.74812 20.9638 8.76305 21.3864 7.50196 21.3988ZM18.8265 11.1308C17.5654 11.1432 16.5722 10.7401 15.7219 9.90638C14.8715 9.07264 14.4489 8.08756 14.4365 6.82648C14.424 5.56539 14.8271 4.57217 15.6609 3.72182C16.4946 2.87146 17.4797 2.44886 18.7408 2.43642C20.0019 2.42398 20.9951 2.82707 21.8454 3.66081C22.6958 4.49455 23.1184 5.47963 23.1308 6.74072C23.1433 8.0018 22.7402 8.99502 21.9064 9.84538C21.0727 10.6957 20.0876 11.1183 18.8265 11.1308ZM34.0595 10.9805C32.7984 10.993 31.8052 10.5899 30.9549 9.75612C30.1045 8.92238 29.6819 7.9373 29.6695 6.67622C29.657 5.41513 30.0601 4.42191 30.8939 3.57156C31.7276 2.7212 32.7127 2.2986 33.9738 2.28616C35.2349 2.27372 36.2281 2.67681 37.0784 3.51055C37.9288 4.34429 38.3514 5.32937 38.3638 6.59046C38.3763 7.85154 37.9732 8.84476 37.1394 9.69512C36.3057 10.5455 35.3206 10.9681 34.0595 10.9805ZM45.5844 21.0232C44.3234 21.0356 43.3301 20.6325 42.4798 19.7988C41.6294 18.965 41.2068 17.9799 41.1944 16.7189C41.1819 15.4578 41.585 14.4645 42.4188 13.6142C43.2525 12.7638 44.2376 12.3412 45.4987 12.3288C46.7598 12.3164 47.753 12.7194 48.6033 13.5532C49.4537 14.3869 49.8763 15.372 49.8887 16.6331C49.9012 17.8942 49.4981 18.8874 48.6644 19.7378C47.8306 20.5881 46.8455 21.0107 45.5844 21.0232Z" fill="#EDA891" stroke="#333333" stroke-width="4"/>
</svg>
