<svg width="52" height="72" viewBox="0 0 52 72" fill="none" xmlns="http://www.w3.org/2000/svg">
<path d="M7.18262 37.7279H15.7121V32.8943H7.18262V37.7279ZM9.42722 34.1775H13.4675V36.4446H9.50204V34.1775H9.42722ZM21.7725 37.7279H30.2272V32.8943H21.7725V37.7279ZM24.0171 34.1775H27.9826V36.4446H24.0171V34.1775ZM35.9136 37.7279H44.3682V32.8943H35.9136V37.7279ZM38.1582 34.1775H42.1236V36.4446H38.1582V34.1775ZM7.18262 45.898H15.7121V41.0216H7.18262V45.898ZM9.42722 42.3049H13.4675V44.6147H9.50204V42.3049H9.42722ZM21.7725 45.898H30.2272V41.0216H21.7725V45.898ZM24.0171 42.3049H27.9826V44.6147H24.0171V42.3049ZM35.9136 45.898H44.3682V41.0216H35.9136V45.898ZM38.1582 42.3049H42.1236V44.6147H38.1582V42.3049Z" fill="black"/>
<path d="M44.6676 22.2859V21.6443C44.6676 20.4038 42.8719 19.3772 40.7022 19.3772C38.5324 19.3772 36.7367 20.4038 36.7367 21.6443V22.2859H29.9281V21.6443C29.9281 20.4038 28.1324 19.3772 25.9626 19.3772C23.7928 19.3772 21.9971 20.4038 21.9971 21.6443V22.2859H15.1885V21.6443C15.1885 20.4038 13.4676 19.3772 11.223 19.3772C9.05324 19.3772 7.25755 20.4038 7.25755 21.6443V22.2859H0V52.0148H52V22.2859H44.6676ZM38.9813 21.6443C38.9813 21.0882 39.7295 20.6605 40.7022 20.6605C41.6748 20.6605 42.423 21.0882 42.423 21.6443V24.6813C42.423 25.2374 41.6748 25.6652 40.7022 25.6652C39.7295 25.6652 38.9813 25.2374 38.9813 24.6813V21.6443ZM24.2417 21.6443C24.2417 21.0882 24.9899 20.6605 25.9626 20.6605C26.9353 20.6605 27.6835 21.0882 27.6835 21.6443V24.6813C27.6835 25.2374 26.9353 25.6652 25.9626 25.6652C24.9899 25.6652 24.2417 25.2374 24.2417 24.6813V21.6443ZM9.57698 21.6443C9.57698 21.0882 10.3252 20.6605 11.223 20.6605C12.1957 20.6605 12.9439 21.0882 12.9439 21.6443V24.6813C12.9439 25.2374 12.1957 25.6652 11.223 25.6652C10.2504 25.6652 9.50216 25.2374 9.50216 24.6813V21.6443H9.57698ZM49.7554 50.6887H2.2446V23.5692H7.33237V24.6813C7.33237 25.9218 9.12806 26.9484 11.2978 26.9484C13.4676 26.9484 15.2633 25.9218 15.2633 24.6813V23.5692H22.0719V24.6813C22.0719 25.9218 23.8676 26.9484 26.0374 26.9484C28.2072 26.9484 30.0029 25.9218 30.0029 24.6813V23.5692H36.8115V24.6813C36.8115 25.9218 38.6072 26.9484 40.777 26.9484C42.9468 26.9484 44.7424 25.9218 44.7424 24.6813V23.5692H49.8302L49.7554 50.6887Z" fill="#0D0D0D"/>
</svg>
