<svg width="22" height="22" viewBox="0 0 22 22" fill="none" xmlns="http://www.w3.org/2000/svg">
<g clip-path="url(#clip0_61_356)">
<path d="M10.7144 10.0595C9.07289 10.0538 8.64865 11.5777 7.12592 12.9307C4.89046 14.915 5.24795 16.7093 6.57497 17.1131C7.90199 17.517 9.07402 16.0531 10.5198 16.1255L10.5334 16.1255L10.547 16.1255C11.9928 16.1413 13.0811 17.6776 14.4251 17.3496C15.7691 17.0215 16.2363 15.2555 14.1253 13.14C12.6863 11.6987 12.3514 10.1466 10.7144 10.0595Z" fill="#EDB24E"/>
<path d="M6.79123 8.7257C7.66233 9.99955 7.70079 11.4883 6.87947 12.0472C6.05814 12.6061 4.687 12.0314 3.81703 10.7564C2.94706 9.48141 2.9086 7.99488 3.72992 7.43376C4.55125 6.87263 5.92239 7.45185 6.79123 8.7257Z" fill="#EDB24E"/>
<path d="M14.7079 8.96333C13.7633 10.184 13.6354 11.6649 14.4217 12.2747C15.2079 12.8844 16.6119 12.3878 17.5599 11.1728C18.5079 9.95775 18.6335 8.47008 17.8461 7.86144C17.0587 7.2528 15.6559 7.74605 14.7079 8.96333Z" fill="#EDB24E"/>
<path d="M10.4189 5.695C10.6565 7.30372 10.0071 8.73368 8.96856 8.88528C7.93003 9.03687 6.89828 7.85805 6.66184 6.24821C6.4254 4.63837 7.07363 3.20953 8.11104 3.05681C9.14844 2.90408 10.1813 4.08403 10.4189 5.695Z" fill="#EDB24E"/>
<path d="M11.2698 5.72C10.936 7.31175 11.4983 8.77678 12.5233 8.99173C13.5482 9.20668 14.6524 8.08895 14.985 6.49608C15.3176 4.90321 14.7564 3.4393 13.7304 3.22548C12.7043 3.01167 11.6024 4.12713 11.2698 5.72Z" fill="#EDB24E"/>
</g>
<defs>
<clipPath id="clip0_61_356">
<rect width="15.2791" height="15.0599" fill="white" transform="translate(0 10.804) rotate(-45)"/>
</clipPath>
</defs>
</svg>
