<svg width="16" height="16" viewBox="0 0 16 16" fill="none" xmlns="http://www.w3.org/2000/svg">
<path fill-rule="evenodd" clip-rule="evenodd" d="M8 0C5.82667 0 5.556 0.00933333 4.70133 0.0493333C1.79467 0.182667 0.181333 1.79467 0.048 4.70133C0.00933333 5.556 0 5.828 0 8C0 10.1733 0.00933333 10.4453 0.048 11.2987C0.181333 14.204 1.79467 15.8187 4.70133 15.952C5.556 15.9907 5.82667 16 8 16C10.1733 16 10.4453 15.9907 11.3 15.952C14.2013 15.8187 15.8213 14.2067 15.952 11.2987C15.9907 10.4453 16 10.1733 16 8C16 5.828 15.9907 5.556 15.952 4.70133C15.8213 1.79867 14.2067 0.181333 11.3 0.0493333C10.4453 0.00933333 10.1733 0 8 0ZM8 1.44267C10.136 1.44267 10.3893 1.45067 11.2333 1.48933C13.4027 1.588 14.4133 2.616 14.5133 4.768C14.5507 5.612 14.5587 5.864 14.5587 8C14.5587 10.136 14.5507 10.3893 14.5133 11.232C14.4133 13.3827 13.404 14.4133 11.2333 14.512C10.3893 14.5493 10.1373 14.5587 8 14.5587C5.864 14.5587 5.61067 14.5507 4.768 14.512C2.59467 14.412 1.588 13.38 1.488 11.232C1.45067 10.3893 1.44133 10.136 1.44133 8C1.44133 5.864 1.45067 5.61067 1.488 4.768C1.58667 2.61467 2.59733 1.58667 4.768 1.488C5.61067 1.44933 5.864 1.44267 8 1.44267ZM3.8916 8.00009C3.8916 5.73076 5.7316 3.89209 7.9996 3.89209C10.2676 3.89209 12.1076 5.73209 12.1076 8.00009C12.1076 10.2694 10.2676 12.1081 7.9996 12.1081C5.7316 12.1081 3.8916 10.2694 3.8916 8.00009ZM7.99967 10.6666C6.52634 10.6666 5.33301 9.47325 5.33301 7.99992C5.33301 6.52792 6.52634 5.33325 7.99967 5.33325C9.47167 5.33325 10.6677 6.52659 10.6677 7.99992C10.6677 9.47325 9.47167 10.6666 7.99967 10.6666ZM11.3093 3.73067C11.3093 3.2 11.74 2.77067 12.2693 2.77067C12.8013 2.77067 13.2307 3.2 13.2307 3.73067C13.2307 4.26133 12.8 4.69067 12.2693 4.69067C11.7387 4.69067 11.3093 4.26 11.3093 3.73067Z" fill="#EDB24E"/>
</svg>
