<svg width="22" height="22" viewBox="0 0 22 22" fill="none" xmlns="http://www.w3.org/2000/svg">
<g clip-path="url(#clip0_5_1243)">
<path d="M10.7144 10.0596C9.07289 10.0539 8.64865 11.5778 7.12592 12.9308C4.89046 14.9151 5.24795 16.7094 6.57497 17.1133C7.90199 17.5171 9.07402 16.0532 10.5198 16.1256L10.5334 16.1256L10.547 16.1256C11.9928 16.1415 13.0811 17.6778 14.4251 17.3497C15.7691 17.0216 16.2363 15.2557 14.1253 13.1401C12.6863 11.6988 12.3514 10.1467 10.7144 10.0596Z" fill="#EDB24E"/>
<path d="M6.79123 8.72576C7.66233 9.99961 7.70079 11.4884 6.87947 12.0473C6.05814 12.6061 4.687 12.0314 3.81703 10.7565C2.94706 9.48147 2.9086 7.99494 3.72992 7.43382C4.55125 6.87269 5.92239 7.45191 6.79123 8.72576Z" fill="#EDB24E"/>
<path d="M14.7079 8.96333C13.7633 10.184 13.6354 11.6649 14.4217 12.2747C15.2079 12.8844 16.6119 12.3878 17.5599 11.1728C18.5079 9.95775 18.6335 8.47008 17.8461 7.86144C17.0587 7.2528 15.6559 7.74605 14.7079 8.96333Z" fill="#EDB24E"/>
<path d="M10.4189 5.695C10.6565 7.30372 10.0071 8.73368 8.96856 8.88528C7.93003 9.03687 6.89828 7.85805 6.66184 6.24821C6.4254 4.63837 7.07363 3.20953 8.11104 3.05681C9.14844 2.90408 10.1813 4.08403 10.4189 5.695Z" fill="#EDB24E"/>
<path d="M11.2698 5.71988C10.936 7.31162 11.4983 8.77666 12.5233 8.99161C13.5482 9.20656 14.6524 8.08883 14.985 6.49596C15.3176 4.90308 14.7564 3.43918 13.7304 3.22536C12.7043 3.01155 11.6024 4.12701 11.2698 5.71988Z" fill="#EDB24E"/>
</g>
<defs>
<clipPath id="clip0_5_1243">
<rect width="15.2791" height="15.0599" fill="white" transform="translate(0 10.804) rotate(-45)"/>
</clipPath>
</defs>
</svg>
